<svg id="enwfTXCLylB1" xmlns="http://www.w3.org/2000/svg" xmlns:xlink="http://www.w3.org/1999/xlink" viewBox="0 0 640 480" shape-rendering="geometricPrecision" text-rendering="geometricPrecision" style="background-color:transparent"><path d="M197.847793,99.272904c-3.26324-11.42136-55.000694-58.491437-62.045564-23.267087-4.26368,21.3184,90.409264,98.251115,62.045564,114.008725-14.45139,8.02855-52.466389-8.267211-70.576829-15.511391" transform="translate(-20.341306 2.688304)" fill="none" stroke="#020202" stroke-width="7"/><path d="M214.78904,140.828527C336.255438,179.981091,306.102831,79.331414,237.72461,71.047c-26.944461-3.264476-19.00464,57.93762-22.93557,79.55777-5.72244,31.4734-5.94675,58.167249-10.75105,89.395229-4.94577,32.14753-11.385014,43.723989-14.334744,76.170939-2.27358,25.00937-15.700393,50.297389,5.017164,69.523458c23.304919,21.627163,57.547031,5.093942,64.506294-19.35189c13.987556-49.134143-26.646824-93.056055-60.205882-87.441875" transform="translate(-8.600839 6.687981)" fill="none" stroke="#020202" stroke-width="7"/><path d="M312.265219,93.982567c12.153392-23.909951,44.370725-33.145651,55.188731,5.733894c5.221614,18.766303.473296,43.624795-5.017163,72.390404-1.064244,5.575789-1.667991,32.199585-8.600841,32.969895-5.08881.56542-28.22406.60871-33.835946,0-56.254421-6.101803,2.262735-86.448715,47.45395-57.560253" transform="translate(1.433473 4.326935)" fill="none" stroke="#020202" stroke-width="7"/><path d="M390.389516,203.64328c8.11354-20.28386,2.324271-91.928754,21.502101-99.599884c25.53647-10.21459,39.420513,20.320254,39.420513,42.977684c0,2.86695-2.86695,8.60084,0,8.60084.97802,0,.66339-7.35066.71674-7.8841c1.82494-18.24939,13.685137-48.060656,36.553572-39.420518c26.459019,9.99673,8.477351,72.935468,10.75105,101.086393" transform="translate(-2.866946 6.45063)" fill="none" stroke="#020202" stroke-width="7"/><path d="M398.27362,130.332149c.717277-9.85303-2.274435-26.992247,0-37.066317" fill="none" stroke="#020202" stroke-width="7"/><path d="M315.132165,298.969258c-57.10433,2.493435-59.327521,135.47943,25.802515,108.227242c52.193147-16.708292,44.500259-137.94072-42.326311-103.21008" transform="translate(-2.44937-4.300419)" fill="none" stroke="#020202" stroke-width="7"/><path d="M421.209194,267.432845c0,31.83462-34.487773,119.699626-7.884103,143.347336c10.01189,8.89946,33.599148,2.562757,45.871148,5.017157" fill="none" stroke="#020202" stroke-width="7"/><path d="M362.43679,296.81905c30.74934,6.14987,82.65678,17.58531,113.2444,11.46779" transform="translate(0 0.000001)" fill="none" stroke="#020202" stroke-width="7"/></svg>